<svg width="22" height="58" viewBox="0 0 22 58" fill="none" xmlns="http://www.w3.org/2000/svg">
<path d="M4.96149 15.2556L4.96149 41.9716C4.96149 43.6106 5.6287 45.1826 6.81635 46.3416C8.00399 47.5006 9.61479 48.1517 11.2944 48.1517C12.974 48.1517 14.5848 47.5006 15.7724 46.3416C16.96 45.1826 17.6273 43.6106 17.6273 41.9716V9.39043C17.6466 8.36396 17.4562 7.34401 17.0671 6.39017C16.678 5.43633 16.098 4.56773 15.361 3.83512C14.624 3.10251 13.7448 2.52058 12.7747 2.12333C11.8046 1.72609 10.7632 1.52148 9.71115 1.52148C8.65913 1.52148 7.61767 1.72609 6.6476 2.12333C5.67753 2.52058 4.7983 3.10251 4.0613 3.83512C3.3243 4.56773 2.74431 5.43633 2.35519 6.39017C1.96608 7.34401 1.77566 8.36396 1.79505 9.39043L1.79505 47.2512C1.79505 49.7098 2.79586 52.0678 4.57733 53.8063C6.3588 55.5448 8.775 56.5215 11.2944 56.5215C13.8138 56.5215 16.2299 55.5448 18.0114 53.8063C19.7929 52.0678 20.7937 49.7098 20.7937 47.2512V15.2556" stroke="#BB97C5" stroke-width="2" stroke-linecap="round" stroke-linejoin="round"/>
</svg>
