<svg width="22" height="58" viewBox="0 0 22 58" fill="none" xmlns="http://www.w3.org/2000/svg">
<path d="M4.55157 14.8498V41.5658C4.55157 43.2049 5.21879 44.7768 6.40644 45.9358C7.59408 47.0948 9.20488 47.746 10.8845 47.746C12.564 47.746 14.1748 47.0948 15.3625 45.9358C16.5501 44.7768 17.2173 43.2049 17.2173 41.5658V8.98467C17.2367 7.9582 17.0463 6.93825 16.6572 5.98441C16.2681 5.03057 15.6881 4.16197 14.9511 3.42936C14.2141 2.69675 13.3349 2.11482 12.3648 1.71757C11.3947 1.32032 10.3533 1.11572 9.30124 1.11572C8.24922 1.11572 7.20776 1.32032 6.23769 1.71757C5.26762 2.11482 4.38839 2.69675 3.65139 3.42936C2.91439 4.16197 2.33439 5.03057 1.94528 5.98441C1.55617 6.93825 1.36574 7.9582 1.38513 8.98467V46.8455C1.38513 49.3041 2.38595 51.662 4.16742 53.4005C5.94889 55.139 8.36508 56.1157 10.8845 56.1157C13.4038 56.1157 15.82 55.139 17.6015 53.4005C19.383 51.662 20.3838 49.3041 20.3838 46.8455V14.8498" stroke="#D6C1DC" stroke-width="2" stroke-linecap="round" stroke-linejoin="round"/>
</svg>
