<svg width="24" height="24" viewBox="0 0 24 24" fill="none" xmlns="http://www.w3.org/2000/svg">
<path d="M16 10.0005C13.6 10.8005 10 8.5 8 10.0002L12 13.5L16 10.0005Z" fill="#BB97C5"/>
<path d="M8 10.0002L7.84999 9.80021C7.78969 9.84544 7.75301 9.91547 7.75018 9.99079C7.74734 10.0661 7.77865 10.1387 7.83538 10.1883L8 10.0002ZM16 10.0005L16.1646 10.1886C16.2542 10.1102 16.2761 9.97951 16.2169 9.8762C16.1577 9.77289 16.0339 9.72565 15.9209 9.76331L16 10.0005ZM12 13.5L11.8354 13.6881C11.9296 13.7706 12.0704 13.7706 12.1646 13.6882L12 13.5ZM8.15001 10.2002C8.59332 9.86766 9.13496 9.73724 9.75922 9.72983C10.3868 9.72237 11.0765 9.83922 11.8014 9.98299C12.5172 10.125 13.2708 10.2941 13.9907 10.3754C14.7122 10.4568 15.4291 10.4543 16.0791 10.2376L15.9209 9.76331C15.3709 9.94665 14.7378 9.95656 14.0468 9.87855C13.3542 9.80035 12.6328 9.63816 11.8986 9.49254C11.1735 9.34872 10.4382 9.22173 9.75328 9.22986C9.06504 9.23804 8.40668 9.38263 7.84999 9.80021L8.15001 10.2002ZM15.8354 9.81232L11.8354 13.3118L12.1646 13.6882L16.1646 10.1886L15.8354 9.81232ZM12.1646 13.3119L8.16462 9.81205L7.83538 10.1883L11.8354 13.6881L12.1646 13.3119Z" fill="#343434"/>
<path d="M12 17L5.5 21.5H18.5L12 17Z" fill="#BB97C5"/>
<path d="M5.5 21.5L5.3577 21.2945C5.26779 21.3567 5.22877 21.4702 5.26137 21.5745C5.29398 21.6789 5.39064 21.75 5.5 21.75V21.5ZM12 17L12.1423 16.7945C12.0567 16.7352 11.9433 16.7352 11.8577 16.7945L12 17ZM18.5 21.5V21.75C18.6094 21.75 18.706 21.6789 18.7386 21.5745C18.7712 21.4702 18.7322 21.3567 18.6423 21.2945L18.5 21.5ZM5.6423 21.7055L12.1423 17.2055L11.8577 16.7945L5.3577 21.2945L5.6423 21.7055ZM11.8577 17.2055L18.3577 21.7055L18.6423 21.2945L12.1423 16.7945L11.8577 17.2055ZM18.5 21.25H5.5V21.75H18.5V21.25Z" fill="#343434"/>
<path d="M18 21.375V18.1924C18 17.3496 17.7972 16.5193 17.4087 15.7715C17.0201 15.0237 16.4572 14.3804 15.7676 13.896L13.695 12.4406C13.6457 12.406 13.6055 12.3601 13.5777 12.3067C13.5499 12.2532 13.5354 12.1939 13.5354 12.1337C13.5354 12.0735 13.5499 12.0141 13.5777 11.9607C13.6055 11.9073 13.6457 11.8613 13.695 11.8268L15.7673 10.3714C16.4569 9.88703 17.0199 9.24376 17.4085 8.49595C17.7971 7.74814 18 6.91776 18 6.075V2.625M6 2.625V6.075C6 6.91776 6.20288 7.74814 6.59151 8.49595C6.98013 9.24376 7.54307 9.88703 8.23275 10.3714L10.305 11.8268C10.3543 11.8613 10.3945 11.9073 10.4223 11.9607C10.4501 12.0141 10.4646 12.0735 10.4646 12.1337C10.4646 12.1939 10.4501 12.2532 10.4223 12.3067C10.3945 12.3601 10.3543 12.406 10.305 12.4406L8.23275 13.896C7.54307 14.3803 6.98013 15.0236 6.59151 15.7714C6.20288 16.5192 6 17.3496 6 18.1924V21.375" stroke="#343434" stroke-miterlimit="10" stroke-linecap="round" stroke-linejoin="round"/>
<path d="M6 20.6252C7.5 20.6252 9.73462 18.5222 10.869 17.6252C11.1964 17.3852 11.5916 17.2554 11.9975 17.2543C12.4035 17.2532 12.7993 17.381 13.128 17.6192C14.2714 18.5083 16.5 20.6252 18 20.6252M7.5315 9.75021C8.89105 9.20554 10.1428 9.43565 11.4375 9.71523C12.9997 10.0526 14.6245 10.462 16.5769 9.66921M10.431 12.289C11.5076 12.5627 11.9374 13.8752 12 13.8752C12.0495 13.8752 12.3251 12.6062 13.5375 12.1108" stroke="#343434" stroke-miterlimit="10" stroke-linecap="round" stroke-linejoin="round"/>
<path d="M18.75 21.375H5.25C5.04289 21.375 4.875 21.5429 4.875 21.75V22.875C4.875 23.0821 5.04289 23.25 5.25 23.25H18.75C18.9571 23.25 19.125 23.0821 19.125 22.875V21.75C19.125 21.5429 18.9571 21.375 18.75 21.375Z" fill="#DD7E79" stroke="#343434" stroke-miterlimit="10" stroke-linecap="round" stroke-linejoin="round"/>
<path d="M18.75 0.75H5.25C5.04289 0.75 4.875 0.917893 4.875 1.125V2.25C4.875 2.45711 5.04289 2.625 5.25 2.625H18.75C18.9571 2.625 19.125 2.45711 19.125 2.25V1.125C19.125 0.917893 18.9571 0.75 18.75 0.75Z" fill="#DD7E79" stroke="#343434" stroke-miterlimit="10" stroke-linecap="round" stroke-linejoin="round"/>
</svg>
