<svg width="350" height="182" viewBox="0 0 350 182" fill="none" xmlns="http://www.w3.org/2000/svg">
<path d="M139.758 5.60706L143.504 9.69309C140.05 31.1083 130.694 41.0953 119.566 45.1723L117.309 42.6915C123.33 37.7298 125.432 31.3637 125.532 22.7812C118.223 22.7264 109.862 23.9486 101.502 25.7636L96.7236 5.60706C109.415 5.83507 133.792 6.65593 139.758 5.60706Z" fill="#343434"/>
<path d="M191.564 12.7851C188.238 19.89 182.153 25.8002 175.2 29.9227L182.034 29.6856C181.162 35.6082 180.598 41.5719 180.344 47.5528L169.873 47.4343C169.462 41.7156 169.233 38.0948 168.182 33.3612C163.811 35.1235 159.183 36.1706 154.477 36.4622L153.189 33.0693C160.791 28.509 170.85 20.5285 172.312 10.8971L191.564 12.7851Z" fill="#343434"/>
<path d="M198.234 5.60696L216.508 5.13269C215.685 13.8338 216.097 20.0814 217.559 31.7557L202.126 31.9838V30.5883C202.292 22.0987 200.975 13.6452 198.234 5.60696V5.60696ZM222.565 5.13269L242.21 5.36983C242.21 5.36983 240.684 13.8885 240.218 17.9745C238.171 35.4861 230.049 43.8314 220.226 47.9813L218.244 45.765C222.1 41.3871 225.261 34.6105 225.261 24.1036C225.14 17.694 224.235 11.3231 222.565 5.13269V5.13269Z" fill="#343434"/>
<path d="M268.404 26.9036C268.761 35.3676 271.447 40.9129 285.536 41.7885L285.856 45.0628C281.773 45.7469 277.649 46.1553 273.512 46.2849C249.656 46.2849 254.69 24.1036 252.643 11.4442C251.922 6.71062 251.273 3.4728 251.273 3.4728H273.147C271.845 6.80154 270.77 10.2144 269.93 13.6879C273.96 13.6332 278.053 13.5693 282.146 13.396C283.042 14.5879 284.21 15.549 285.553 16.1994C286.896 16.8498 288.375 17.1707 289.867 17.1355C290.48 17.1365 291.092 17.0785 291.694 16.9622L290.114 27.9069C282.915 26.9969 275.656 26.6614 268.404 26.9036V26.9036ZM289.922 15.4117C285.6 15.4117 282.146 12.5478 282.146 7.53147C282.216 5.51063 283.068 3.59566 284.525 2.19053C285.982 0.785408 287.928 0 289.954 0C291.979 0 293.926 0.785408 295.382 2.19053C296.839 3.59566 297.692 5.51063 297.761 7.53147C297.734 12.5934 294.307 15.4117 289.922 15.4117V15.4117ZM289.922 4.46695C289.291 4.4779 288.677 4.67547 288.159 5.03464C287.641 5.39381 287.241 5.89843 287.01 6.48463C286.779 7.07083 286.727 7.71224 286.862 8.32768C286.996 8.94312 287.31 9.5049 287.765 9.94193C288.219 10.3789 288.793 10.6716 289.414 10.7827C290.036 10.8939 290.676 10.8185 291.254 10.5663C291.832 10.3141 292.322 9.89629 292.663 9.3658C293.003 8.8353 293.178 8.21597 293.165 7.58619C293.165 7.16519 293.081 6.74843 292.917 6.36059C292.753 5.97276 292.512 5.62174 292.21 5.32833C291.908 5.03491 291.549 4.80507 291.156 4.65241C290.763 4.49975 290.343 4.42738 289.922 4.43958V4.46695Z" fill="#343434"/>
<path d="M305.6 5.42455C314.746 6.25448 323.952 6.1781 333.084 5.19653L331.211 21.4221C323.252 21.3035 317.697 21.3674 308.369 21.8873L305.6 5.42455ZM319.863 47.7989L307.784 30.1779C327.309 29.8222 340.064 24.5687 347.657 6.36397L349.996 7.27603C350.27 29.5942 336.181 40.2744 319.863 47.7989Z" fill="#343434"/>
<path d="M101.456 78.0429C100.99 69.8343 100.058 67.7092 100.058 67.7092L117.537 68.9405C117.537 68.9405 114.321 82.5393 114.321 86.7987C114.321 91.8788 116.02 95.2626 118.067 97.1323L116.66 99.7591C115.554 99.8685 102.745 100.151 101.456 78.0429ZM141.393 68.2291C140.927 73.7015 141.046 77.7419 141.046 79.3745C141.046 91.514 140.132 108.852 113.736 113.641L112.101 110.43C124.435 105.587 127.067 96.0652 127.067 87.9023C127.067 75.6442 122.8 67.7639 122.8 67.7639L141.393 68.2291Z" fill="#343434"/>
<path d="M175.894 103.553C175.492 109.026 172.916 114.051 164.556 114.051C157.365 114.051 153.39 109.682 153.39 105.186C153.39 100.343 158.068 95.2627 167.653 95.0894C166.871 88.2338 165.098 81.5274 162.39 75.1791L178.645 75.4709C178.068 77.3516 177.601 79.2641 177.247 81.1987C181.45 81.0801 186.018 80.6697 190.34 80.2045L188.64 93.2744C184.145 92.7545 179.988 92.3623 176.187 92.1069C176.132 93.4477 176.077 94.907 176.013 96.4848C182.564 98.9383 186.484 103.9 187.361 105.605L185.534 107.648C182.661 105.593 179.37 104.195 175.894 103.553V103.553ZM168.238 102.97C164.674 103.316 163.267 105.359 163.267 106.992C163.232 107.223 163.249 107.459 163.315 107.683C163.382 107.908 163.498 108.114 163.654 108.289C163.811 108.463 164.004 108.601 164.219 108.692C164.435 108.783 164.669 108.825 164.903 108.816C167.415 108.807 168.183 105.888 168.238 102.97V102.97Z" fill="#343434"/>
<path d="M202.565 100.151C202.099 97.4699 200.107 85.914 199.404 83.2235C201.514 83.2873 206.311 82.8769 211.857 82.8769C223.735 82.8769 238.993 84.8013 238.993 97.3513C238.993 102.249 235.54 109.491 225.599 115.447L223.15 112.92C225.836 109.126 227.353 105.797 227.353 103.289C227.353 99.7865 224.493 97.6888 217.887 97.6888C212.7 97.8956 207.555 98.7224 202.565 100.151V100.151ZM205.023 79.0189L204.785 65.1282C212.853 66.0402 223.735 67.1165 233.904 67.4631L231.684 80.7244C222.874 79.2894 213.945 78.703 205.023 78.9733V79.0189Z" fill="#343434"/>
<path d="M254.078 78.0429C253.612 69.8343 252.68 67.7092 252.68 67.7092L270.159 68.9405C270.159 68.9405 266.943 82.5393 266.943 86.7987C266.943 91.8788 268.642 95.2626 270.689 97.1323L269.282 99.7591C268.176 99.8685 255.366 100.151 254.078 78.0429ZM294.015 68.2291C293.549 73.7015 293.668 77.7419 293.668 79.3745C293.668 91.514 292.754 108.852 266.358 113.641L264.722 110.43C277.057 105.587 279.688 96.0652 279.688 87.9023C279.688 75.6442 275.421 67.7639 275.421 67.7639L294.015 68.2291Z" fill="#343434"/>
<path d="M130.229 167.06C127.831 172.626 123.974 177.444 119.064 181.005L115.409 179.783C117.47 176.851 119.069 173.622 120.151 170.207C118.682 170.801 117.113 171.11 115.528 171.119C109.68 171.119 104.015 167.151 104.015 161.195C104.015 154.601 109.333 151.628 115.062 151.628C117.307 151.641 119.53 152.077 121.613 152.914C121.443 151.686 121.208 150.469 120.909 149.266C114.13 149.266 107.113 149.558 100.15 150.178L96.7788 136.36C103.622 136.944 110.109 137.272 116.606 137.272C115.199 134.472 113.865 132.192 112.951 130.386H134.697C134.578 132.019 134.523 134.299 134.404 136.862C137.977 136.688 141.659 136.451 145.368 136.159L142.92 149.649C139.932 149.53 136.889 149.412 133.737 149.357C133.673 150.351 133.618 151.336 133.564 152.275H128.301L129.882 167.042L130.229 167.06ZM121.092 163.412C121.036 162.553 120.661 161.745 120.041 161.147C119.421 160.548 118.601 160.202 117.739 160.174C117.366 160.181 116.998 160.262 116.658 160.413C116.317 160.564 116.01 160.781 115.754 161.052C115.499 161.323 115.3 161.643 115.17 161.992C115.04 162.34 114.982 162.712 114.998 163.083C114.998 165.181 117.044 166.175 118.652 166.175C119.337 166.126 119.977 165.813 120.435 165.303C120.894 164.792 121.136 164.124 121.11 163.439L121.092 163.412ZM131.444 165.309L130.22 154.045H137.474V165.309H131.444ZM140.042 165.309L139.055 153.963H146.31L145.844 165.291L140.042 165.309Z" fill="#343434"/>
<path d="M155.026 158.888L153.372 142.544C156.588 142.425 159.859 142.307 163.368 142.37C163.487 140.264 163.542 137.345 163.423 134.025L181.431 135.074C180.518 138.166 179.604 141.376 178.398 144.587C184.712 146.922 189.362 151.473 189.362 160.174C189.362 170.909 179.312 180.239 179.312 180.239L176.507 178.251C178.197 174.284 179.431 170.608 179.431 168.1C179.431 163.257 176.626 160.858 171.947 159.754C168.857 166.257 165.093 172.42 160.718 178.142L157.447 177.229C159.019 171.338 160.426 165.09 161.477 158.788C159.878 158.769 157.941 158.824 155.026 158.888ZM197.119 164.552C195.84 158.012 192.916 152.522 185.077 143.246L197.704 138.576C198.992 139.16 202.501 144.824 202.501 154.154C202.474 157.701 202.005 161.231 201.103 164.661L197.119 164.552Z" fill="#343434"/>
<path d="M254.717 173.481L255.192 176.399C253.365 178.224 249.454 179.546 245.306 179.546C238.7 179.546 231.51 176.281 231.51 166.531C231.51 165.309 230.98 164.953 230.459 164.953C229.344 164.953 219.166 171.438 209.051 180.248L204.848 178.205C206.015 176.36 206.901 174.353 207.48 172.25C213.437 151.418 214.141 137.591 214.141 133.669L234.315 134.372C233.401 136.652 224.84 150.424 220.984 159.116C225.077 155.969 232.094 150.369 238.061 150.369C243.497 150.369 244.256 155.03 244.256 160.283C244.256 166.941 243.022 174.475 248.577 174.475C250.658 174.408 252.722 174.074 254.717 173.481V173.481Z" fill="#343434"/>
<g clip-path="url(#clip0_12_689)">
<path fill-rule="evenodd" clip-rule="evenodd" d="M69.5559 31.6549C67.3754 19.848 61.5663 -3.0871 50.2663 0.792698C45.4078 2.44833 46.8237 12.3649 47.5148 31.4672L47.6852 36.0753C48.6084 61.9718 50.1326 107.159 50.1469 107.748C51.8111 147.925 42.0601 184.936 59.2237 180.773C74.3893 177.094 52.0491 135.096 65.3875 108.401C73.3831 92.402 74.1493 61.2757 70.3916 36.5997L69.5559 31.6549ZM57.5813 176.515C61.083 176.369 60.2513 167.488 59.8902 164.016C58.4277 150.071 53.5197 129.843 58.8737 112.691L54.7834 112.858C55.4349 145.817 49.5778 176.715 57.5813 176.515ZM60.5668 108.15C60.8265 107.568 61.0902 106.988 61.377 106.417C73.144 82.872 68.2393 22.1739 56.3911 7.37999C55.2646 5.95367 53.7341 4.51739 51.9571 4.94842C51.0104 6.53632 50.667 3.36674 54.6483 108.394L60.5668 108.15Z" fill="#343434"/>
</g>
<path fill-rule="evenodd" clip-rule="evenodd" d="M19.3148 88.8211C19.2507 83.8331 19.2597 78.6839 19.3418 73.3735C19.3641 73.2083 19.3675 73.0411 19.3516 72.8754C19.7306 59.8575 32.8746 60.689 34.013 45.2744C34.9856 36.4127 35.4439 21.6294 34.2573 2.37891C34.1331 0.421551 31.2051 0.571091 31.2559 2.53461C31.5859 15.7958 31.4258 29.4021 29.7895 42.692L24.8587 42.6445C25.6041 26.3384 25.033 7.90231 24.9193 2.33578C24.8741 0.220977 21.681 0.200905 21.6547 2.43882C21.5609 11.7702 21.5554 27.2456 20.3954 42.5985L14.8992 42.5529C14.2891 26.8853 14.8514 11.4193 15.0923 2.31585C15.1474 0.183937 11.9653 0.0861601 11.8349 2.21206C11.1139 15.2223 10.302 28.2538 10.4254 42.5137L5.49907 42.4644C4.11537 26.5746 4.86571 12.1487 5.47509 2.29192C5.59481 0.337648 2.67154 0.121876 2.47995 2.07915C1.04704 16.8054 0.369028 29.7329 1.16994 44.7062C1.07636 51.9122 4.82745 56.3619 8.78481 60.3749C15.7184 67.4003 15.3522 68.3383 14.2311 90.114L13.9706 94.8833C10.608 150.637 0.380232 180.738 15.1561 180.884C30.0452 181.026 20.6096 149.603 19.3991 93.4192L19.3148 88.8211ZM5.90298 46.993C7.17864 54.9797 13.6808 56.9962 17.2627 63.705C21.0894 57.0688 27.6609 55.1751 29.2235 47.2218L5.90298 46.993ZM14.2162 176.16C14.2182 176.161 14.2202 176.162 14.2223 176.163L14.2066 176.156C14.2098 176.157 14.213 176.159 14.2162 176.16C9.27804 174.028 13.3126 150.912 16.2202 122.606C18.2054 152.477 22.0969 179.511 14.2162 176.16Z" fill="#343434"/>
<defs>
<clipPath id="clip0_12_689">
<rect width="26.9231" height="182" fill="white" transform="translate(45.8689)"/>
</clipPath>
</defs>
</svg>
